<svg width="68" height="55" viewBox="0 0 68 55" fill="none" xmlns="http://www.w3.org/2000/svg">
<path d="M5.13219 27.4286V29.4754L6.7468 28.2174C9.12354 26.3656 11.9449 25.4286 15.2592 25.4286C19.2795 25.4286 22.6354 26.8045 25.3897 29.5636C28.1489 32.3276 29.5184 35.6445 29.5184 39.5714C29.5184 43.6003 28.1442 46.9628 25.3897 49.7221C22.6354 52.4812 19.2795 53.8571 15.2592 53.8571C11.2388 53.8571 7.88297 52.4812 5.1286 49.7221C2.37416 46.9628 1 43.6003 1 39.5714V24.4286C1 17.9333 3.29409 12.427 7.90596 7.85286C12.5232 3.27337 17.9996 1 24.3862 1C25.2298 1 25.679 1.21055 25.9245 1.45649C26.1704 1.70275 26.381 2.15371 26.381 3C26.381 3.9052 26.1645 4.39843 25.9083 4.6673C25.6607 4.92713 25.2176 5.14286 24.3862 5.14286C19.0813 5.14286 14.5248 7.03448 10.7723 10.7935C7.01987 14.5525 5.13219 19.1161 5.13219 24.4286V27.4286ZM41.6401 27.4286V29.4754L43.2547 28.2174C45.6315 26.3656 48.4529 25.4286 51.7671 25.4286C55.7875 25.4286 59.1433 26.8045 61.8977 29.5636C64.6568 32.3276 66.0263 35.6445 66.0263 39.5714C66.0263 43.6003 64.6521 46.9628 61.8977 49.7221C59.1433 52.4812 55.7875 53.8571 51.7671 53.8571C47.7468 53.8571 44.3909 52.4812 41.6365 49.7221C38.8821 46.9628 37.5079 43.6003 37.5079 39.5714V24.4286C37.5079 17.9333 39.802 12.427 44.4139 7.85286C49.0312 3.27337 54.5075 1 60.8941 1C61.7378 1 62.187 1.21055 62.4325 1.45649C62.6783 1.70275 62.8889 2.15371 62.8889 3C62.8889 3.9052 62.6724 4.39843 62.4162 4.6673C62.1686 4.92713 61.7256 5.14286 60.8941 5.14286C55.5893 5.14286 51.0328 7.03448 47.2803 10.7935C43.5278 14.5525 41.6401 19.1161 41.6401 24.4286V27.4286Z" stroke="#919191" stroke-opacity="0.5" stroke-width="2"/>
</svg>
